<?xml version="1.0" encoding="utf-8" ?>
<svg baseProfile="full" height="32" version="1.1" viewBox="0,0,1024,1024" width="32" xmlns="http://www.w3.org/2000/svg" xmlns:ev="http://www.w3.org/2001/xml-events" xmlns:xlink="http://www.w3.org/1999/xlink"><defs /><path d="M493.8800048828125,65.95999908447266 L492.8999938964844,66.94000244140625 L477.239990234375,66.94000244140625 L476.260009765625,67.91999816894531 L449.82000732421875,69.87999725341797 L407.7099914550781,77.70999908447266 L378.3299865722656,85.54000091552734 L351.8999938964844,94.36000061035156 L325.4599914550781,105.12999725341797 L285.30999755859375,125.69000244140625 L249.0800018310547,149.19000244140625 L221.66000366210938,170.74000549316406 L186.39999389648438,204.02999877929688 L157.02999877929688,238.3000030517578 L133.52999877929688,271.6000061035156 L117.86000061035156,298.0400085449219 L103.16999816894531,327.4100036621094 L93.37999725341797,350.9200134277344 L78.69000244140625,396.94000244140625 L69.87999725341797,439.04998779296875 L66.94000244140625,468.4200134277344 L65.95999908447266,469.3999938964844 L65.95999908447266,479.20001220703125 L64.9800033569336,480.1700134277344 L64.0,532.0700073242188 L64.9800033569336,533.0499877929688 L64.9800033569336,548.719970703125 L65.95999908447266,549.7000122070312 L67.91999816894531,577.1199951171875 L74.7699966430664,614.3300170898438 L85.54000091552734,652.52001953125 L105.12999725341797,701.47998046875 L128.6300048828125,744.5700073242188 L152.1300048828125,778.8400268554688 L175.6300048828125,807.239990234375 L210.88999938964844,842.489990234375 L251.02999877929688,874.8099975585938 L279.42999267578125,893.4099731445312 L326.42999267578125,917.8900146484375 L349.94000244140625,927.6900024414062 L392.0400085449219,941.3900146484375 L425.3399963378906,949.22998046875 L448.8399963378906,952.1699829101562 L449.82000732421875,953.1500244140625 L456.6700134277344,953.1500244140625 L457.6499938964844,954.1199951171875 L476.260009765625,955.0999755859375 L477.239990234375,956.0800170898438 L522.280029296875,957.0599975585938 L523.260009765625,956.0800170898438 L534.030029296875,956.0800170898438 L534.030029296875,621.1799926757812 L533.0499877929688,620.2100219726562 L533.0499877929688,609.4299926757812 L534.030029296875,608.4500122070312 L546.760009765625,622.1599731445312 L566.3499755859375,639.7899780273438 L589.8499755859375,656.4400024414062 L614.3300170898438,669.1699829101562 L638.8099975585938,677.97998046875 L671.1300048828125,683.8599853515625 L682.8800048828125,683.8599853515625 L691.6900024414062,681.9000244140625 L701.47998046875,677.0 L709.3200073242188,669.1699829101562 L715.1900024414062,657.4199829101562 L715.1900024414062,644.6900024414062 L712.25,638.8099975585938 L708.3400268554688,634.8900146484375 L702.4600219726562,631.9600219726562 L681.9000244140625,630.97998046875 L658.4000244140625,626.0800170898438 L640.77001953125,619.22998046875 L615.3099975585938,604.5399780273438 L600.6199951171875,592.7899780273438 L585.9299926757812,578.0999755859375 L571.239990234375,559.489990234375 L559.489990234375,540.8900146484375 L543.8300170898438,507.5899963378906 L535.989990234375,485.07000732421875 L536.969970703125,481.1499938964844 L559.489990234375,503.67999267578125 L576.1400146484375,516.4099731445312 L593.77001953125,527.1799926757812 L619.22998046875,538.9299926757812 L636.8499755859375,544.7999877929688 L660.3499755859375,549.7000122070312 L681.9000244140625,550.6799926757812 L690.7100219726562,548.719970703125 L699.52001953125,544.7999877929688 L706.3800048828125,538.9299926757812 L712.25,529.1400146484375 L714.2100219726562,523.260009765625 L714.2100219726562,510.5299987792969 L712.25,505.6300048828125 L706.3800048828125,499.760009765625 L702.4600219726562,497.79998779296875 L673.0800170898438,495.8399963378906 L659.3699951171875,492.8999938964844 L644.6900024414062,488.010009765625 L623.1400146484375,477.239990234375 L601.5999755859375,461.57000732421875 L579.0800170898438,439.04998779296875 L566.3499755859375,422.3999938964844 L556.5599975585938,406.7300109863281 L540.8900146484375,373.44000244140625 L534.030029296875,352.8699951171875 L531.0999755859375,339.1700134277344 L532.0700073242188,338.19000244140625 L541.8699951171875,348.9599914550781 L563.4099731445312,367.55999755859375 L586.9099731445312,383.2300109863281 L620.2100219726562,398.8999938964844 L655.4600219726562,408.69000244140625 L680.9199829101562,410.6499938964844 L681.9000244140625,409.6700134277344 L686.7899780273438,409.6700134277344 L698.5399780273438,404.7699890136719 L705.4000244140625,396.94000244140625 L709.3200073242188,386.1700134277344 L709.3200073242188,380.2900085449219 L710.2999877929688,379.30999755859375 L709.3200073242188,368.5400085449219 L707.3599853515625,364.6300048828125 L702.4600219726562,359.7300109863281 L698.5399780273438,357.7699890136719 L667.2100219726562,354.8299865722656 L649.5800170898438,349.94000244140625 L637.8300170898438,345.0400085449219 L625.0999755859375,338.19000244140625 L603.5599975585938,322.5199890136719 L579.0800170898438,297.05999755859375 L559.489990234375,269.6400146484375 L538.9299926757812,231.4499969482422 L528.1599731445312,205.99000549316406 L521.2999877929688,184.4499969482422 L518.3699951171875,179.5500030517578 L513.469970703125,176.61000061035156 L507.5899963378906,176.61000061035156 L501.7200012207031,181.50999450683594 L486.04998779296875,223.6199951171875 L463.5299987792969,267.67999267578125 L441.9800109863281,298.0400085449219 L419.4599914550781,321.5400085449219 L399.8800048828125,336.2300109863281 L379.30999755859375,347.0 L361.69000244140625,352.8699951171875 L351.8999938964844,354.8299865722656 L324.4800109863281,356.7900085449219 L318.6000061035156,359.7300109863281 L313.70001220703125,365.6000061035156 L312.7300109863281,368.5400085449219 L313.70001220703125,388.1300048828125 L317.6199951171875,396.94000244140625 L323.5,403.7900085449219 L333.2900085449219,408.69000244140625 L343.0799865722656,410.6499938964844 L368.5400085449219,408.69000244140625 L385.19000244140625,404.7699890136719 L402.82000732421875,398.8999938964844 L432.19000244140625,385.19000244140625 L457.6499938964844,368.5400085449219 L477.239990234375,351.8999938964844 L489.9700012207031,338.19000244140625 L490.95001220703125,339.1700134277344 L482.1300048828125,368.5400085449219 L473.32000732421875,390.0899963378906 L462.54998779296875,410.6499938964844 L451.7799987792969,427.29998779296875 L441.010009765625,441.010009765625 L420.44000244140625,461.57000732421875 L401.8399963378906,475.2799987792969 L377.3599853515625,488.010009765625 L362.6700134277344,492.8999938964844 L348.9599914550781,495.8399963378906 L319.5799865722656,497.79998779296875 L311.75,503.67999267578125 L307.8299865722656,513.469970703125 L308.80999755859375,524.239990234375 L313.70001220703125,535.010009765625 L324.4800109863281,545.780029296875 L334.2699890136719,549.7000122070312 L339.1700134277344,549.7000122070312 L340.1400146484375,550.6799926757812 L351.8999938964844,550.6799926757812 L352.8699951171875,549.7000122070312 L368.5400085449219,548.719970703125 L386.1700134277344,544.7999877929688 L400.8599853515625,539.9099731445312 L428.2799987792969,527.1799926757812 L454.7099914550781,509.54998779296875 L468.4200134277344,497.79998779296875 L486.04998779296875,479.20001220703125 L487.0299987792969,480.1700134277344 L487.0299987792969,483.1099853515625 L477.239990234375,510.5299987792969 L459.6099853515625,545.780029296875 L441.010009765625,572.219970703125 L421.4200134277344,592.7899780273438 L400.8599853515625,608.4500122070312 L374.4200134277344,622.1599731445312 L347.0,630.0 L318.6000061035156,631.9600219726562 L312.7300109863281,634.8900146484375 L309.7900085449219,637.8300170898438 L305.8699951171875,646.6400146484375 L305.8699951171875,654.47998046875 L309.7900085449219,665.25 L323.5,678.9600219726562 L338.19000244140625,683.8599853515625 L351.8999938964844,683.8599853515625 L352.8699951171875,682.8800048828125 L366.5799865722656,681.9000244140625 L398.8999938964844,673.0800170898438 L431.2099914550781,657.4199829101562 L457.6499938964844,638.8099975585938 L488.010009765625,609.4299926757812 L488.989990234375,610.4099731445312 L488.989990234375,619.22998046875 L488.010009765625,620.2100219726562 L488.010009765625,887.5399780273438 L488.989990234375,888.52001953125 L487.0299987792969,890.469970703125 L486.04998779296875,889.5 L470.3800048828125,889.5 L469.3999938964844,888.52001953125 L461.57000732421875,888.52001953125 L427.29998779296875,882.6400146484375 L397.9200134277344,874.8099975585938 L372.4599914550781,865.989990234375 L326.42999267578125,844.4500122070312 L304.8900146484375,831.719970703125 L283.3500061035156,817.030029296875 L248.10000610351562,787.6500244140625 L232.42999267578125,771.989990234375 L212.83999633789062,749.4600219726562 L186.39999389648438,712.25 L165.83999633789062,675.0399780273438 L154.08999633789062,647.6199951171875 L145.27999877929688,622.1599731445312 L134.5,575.1599731445312 L132.5500030517578,554.5999755859375 L131.57000732421875,553.6199951171875 L131.57000732421875,543.8300170898438 L130.58999633789062,542.8499755859375 L130.58999633789062,528.1599731445312 L129.61000061035156,527.1799926757812 L130.58999633789062,478.2200012207031 L131.57000732421875,477.239990234375 L133.52999877929688,452.760009765625 L139.39999389648438,422.3999938964844 L153.11000061035156,378.3299865722656 L163.8800048828125,352.8699951171875 L174.64999389648438,331.3299865722656 L187.3800048828125,309.7900085449219 L202.07000732421875,288.239990234375 L229.49000549316406,254.9499969482422 L252.00999450683594,232.42999267578125 L267.67999267578125,218.72000122070312 L289.2200012207031,202.07000732421875 L309.7900085449219,188.36000061035156 L351.8999938964844,165.83999633789062 L383.2300109863281,153.11000061035156 L403.7900085449219,146.25999450683594 L430.2300109863281,139.39999389648438 L457.6499938964844,134.5 L472.3399963378906,133.52999877929688 L473.32000732421875,132.5500030517578 L518.3699951171875,130.58999633789062 L519.3400268554688,131.57000732421875 L538.9299926757812,131.57000732421875 L539.9099731445312,132.5500030517578 L557.530029296875,133.52999877929688 L558.510009765625,134.5 L582.989990234375,137.44000244140625 L587.8900146484375,139.39999389648438 L604.5399780273438,142.33999633789062 L626.0800170898438,148.2100067138672 L651.5399780273438,157.02999877929688 L668.1900024414062,163.8800048828125 L699.52001953125,179.5500030517578 L730.8599853515625,199.1300048828125 L768.0700073242188,228.50999450683594 L795.489990234375,255.92999267578125 L822.9099731445312,290.20001220703125 L850.3300170898438,334.2699890136719 L865.989990234375,367.55999755859375 L880.6799926757812,409.6700134277344 L888.52001953125,444.9200134277344 L890.469970703125,464.510009765625 L891.4500122070312,465.489990234375 L891.4500122070312,474.29998779296875 L892.4299926757812,475.2799987792969 L892.4299926757812,487.0299987792969 L893.4099731445312,488.010009765625 L893.4099731445312,535.989990234375 L892.4299926757812,536.969970703125 L892.4299926757812,549.7000122070312 L891.4500122070312,550.6799926757812 L889.5,573.2000122070312 L881.6599731445312,611.3900146484375 L872.8499755859375,639.7899780273438 L865.989990234375,657.4199829101562 L849.3499755859375,691.6900024414062 L823.8900146484375,731.8400268554688 L792.5499877929688,770.030029296875 L757.2999877929688,803.3200073242188 L738.6900024414062,818.010009765625 L717.1500244140625,832.7000122070312 L676.02001953125,855.219970703125 L637.8300170898438,870.8900146484375 L609.4299926757812,879.7000122070312 L594.75,882.6400146484375 L594.75,950.2100219726562 L638.8099975585938,939.4400024414062 L678.9600219726562,925.72998046875 L728.9000244140625,902.22998046875 L752.4000244140625,888.52001953125 L779.8200073242188,869.9099731445312 L809.2000122070312,846.4099731445312 L840.530029296875,816.0499877929688 L865.010009765625,787.6500244140625 L893.4099731445312,747.510009765625 L908.0999755859375,722.0499877929688 L926.7100219726562,682.8800048828125 L939.4400024414062,648.5999755859375 L951.1900024414062,603.5599975585938 L951.1900024414062,598.6599731445312 L955.0999755859375,581.0399780273438 L955.0999755859375,575.1599731445312 L956.0800170898438,574.1799926757812 L956.0800170898438,567.3300170898438 L957.0599975585938,566.3499755859375 L958.0399780273438,544.7999877929688 L959.02001953125,543.8300170898438 L959.02001953125,484.0899963378906 L958.0399780273438,483.1099853515625 L958.0399780273438,470.3800048828125 L957.0599975585938,469.3999938964844 L956.0800170898438,452.760009765625 L949.22998046875,413.5899963378906 L934.5399780273438,362.6700134277344 L919.8499755859375,326.42999267578125 L898.3099975585938,285.30999755859375 L873.8300170898438,248.10000610351562 L849.3499755859375,217.74000549316406 L809.2000122070312,177.58999633789062 L778.8400268554688,153.11000061035156 L738.6900024414062,126.66999816894531 L703.4400024414062,108.06999969482422 L662.3099975585938,91.41999816894531 L634.8900146484375,82.61000061035156 L607.47998046875,75.75 L586.9099731445312,72.80999755859375 L581.0399780273438,70.8499984741211 L558.510009765625,68.9000015258789 L557.530029296875,67.91999816894531 L546.760009765625,67.91999816894531 L545.780029296875,66.94000244140625 L532.0700073242188,66.94000244140625 L531.0999755859375,65.95999908447266 Z" fill="#3E7B2E" fill-rule="evenodd" /></svg>
