<?xml version="1.0" encoding="utf-8" ?>
<svg baseProfile="full" height="1024" version="1.1" viewBox="0,0,1024,1024" width="1024" xmlns="http://www.w3.org/2000/svg" xmlns:ev="http://www.w3.org/2001/xml-events" xmlns:xlink="http://www.w3.org/1999/xlink"><defs /><path d="M493.8800048828125,65.95999908447266 L492.8999938964844,66.94000244140625 L477.239990234375,66.94000244140625 L476.260009765625,67.91999816894531 L449.82000732421875,69.87999725341797 L411.6300048828125,76.7300033569336 L381.2699890136719,84.55999755859375 L351.8999938964844,94.36000061035156 L325.4599914550781,105.12999725341797 L283.3500061035156,126.66999816894531 L255.92999267578125,144.3000030517578 L214.8000030517578,176.61000061035156 L185.42999267578125,205.00999450683594 L159.97000122070312,234.38999938964844 L131.57000732421875,274.5400085449219 L118.83999633789062,296.0799865722656 L103.16999816894531,327.4100036621094 L90.44000244140625,358.75 L79.66999816894531,393.0199890136719 L69.87999725341797,439.04998779296875 L66.94000244140625,468.4200134277344 L65.95999908447266,469.3999938964844 L65.95999908447266,479.20001220703125 L64.9800033569336,480.1700134277344 L64.0,532.0700073242188 L64.9800033569336,533.0499877929688 L64.9800033569336,548.719970703125 L65.95999908447266,549.7000122070312 L67.91999816894531,577.1199951171875 L74.7699966430664,614.3300170898438 L87.5,658.4000244140625 L104.1500015258789,699.52001953125 L123.7300033569336,736.72998046875 L146.25999450683594,771.010009765625 L174.64999389648438,806.260009765625 L211.86000061035156,843.469970703125 L244.17999267578125,869.9099731445312 L284.3299865722656,896.3499755859375 L313.70001220703125,912.02001953125 L357.7699890136719,930.6199951171875 L392.0400085449219,941.3900146484375 L420.44000244140625,948.25 L442.9599914550781,952.1699829101562 L465.489990234375,954.1199951171875 L466.4700012207031,955.0999755859375 L476.260009765625,955.0999755859375 L477.239990234375,956.0800170898438 L522.280029296875,957.0599975585938 L523.260009765625,956.0800170898438 L534.030029296875,956.0800170898438 L534.030029296875,621.1799926757812 L533.0499877929688,620.2100219726562 L533.0499877929688,610.4099731445312 L535.010009765625,609.4299926757812 L561.4500122070312,635.8699951171875 L584.9500122070312,653.5 L616.2899780273438,670.1500244140625 L638.8099975585938,677.97998046875 L671.1300048828125,683.8599853515625 L682.8800048828125,683.8599853515625 L691.6900024414062,681.9000244140625 L701.47998046875,677.0 L709.3200073242188,669.1699829101562 L715.1900024414062,657.4199829101562 L715.1900024414062,644.6900024414062 L713.22998046875,639.7899780273438 L708.3400268554688,634.8900146484375 L702.4600219726562,631.9600219726562 L681.9000244140625,630.97998046875 L658.4000244140625,626.0800170898438 L640.77001953125,619.22998046875 L615.3099975585938,604.5399780273438 L600.6199951171875,592.7899780273438 L585.9299926757812,578.0999755859375 L571.239990234375,559.489990234375 L562.4299926757812,545.780029296875 L545.780029296875,512.489990234375 L535.989990234375,484.0899963378906 L536.969970703125,481.1499938964844 L547.739990234375,492.8999938964844 L565.3699951171875,508.57000732421875 L591.8099975585938,526.2000122070312 L619.22998046875,538.9299926757812 L636.8499755859375,544.7999877929688 L654.47998046875,548.719970703125 L669.1699829101562,549.7000122070312 L670.1500244140625,550.6799926757812 L681.9000244140625,550.6799926757812 L682.8800048828125,549.7000122070312 L687.77001953125,549.7000122070312 L699.52001953125,544.7999877929688 L706.3800048828125,538.9299926757812 L712.25,529.1400146484375 L714.2100219726562,523.260009765625 L714.2100219726562,510.5299987792969 L712.25,505.6300048828125 L706.3800048828125,499.760009765625 L702.4600219726562,497.79998779296875 L673.0800170898438,495.8399963378906 L647.6199951171875,488.989990234375 L625.0999755859375,478.2200012207031 L601.5999755859375,461.57000732421875 L580.0599975585938,440.0299987792969 L559.489990234375,411.6300048828125 L540.8900146484375,373.44000244140625 L531.0999755859375,340.1400146484375 L533.0499877929688,339.1700134277344 L541.8699951171875,348.9599914550781 L558.510009765625,363.6499938964844 L586.9099731445312,383.2300109863281 L620.2100219726562,398.8999938964844 L655.4600219726562,408.69000244140625 L680.9199829101562,410.6499938964844 L690.7100219726562,408.69000244140625 L698.5399780273438,404.7699890136719 L705.4000244140625,396.94000244140625 L709.3200073242188,386.1700134277344 L709.3200073242188,380.2900085449219 L710.2999877929688,379.30999755859375 L709.3200073242188,368.5400085449219 L707.3599853515625,364.6300048828125 L702.4600219726562,359.7300109863281 L698.5399780273438,357.7699890136719 L667.2100219726562,354.8299865722656 L644.6900024414062,347.9800109863281 L625.0999755859375,338.19000244140625 L603.5599975585938,322.5199890136719 L579.0800170898438,297.05999755859375 L559.489990234375,269.6400146484375 L538.9299926757812,231.4499969482422 L524.239990234375,195.22000122070312 L521.2999877929688,184.4499969482422 L517.3900146484375,178.57000732421875 L513.469970703125,176.61000061035156 L507.5899963378906,176.61000061035156 L501.7200012207031,181.50999450683594 L482.1300048828125,232.42999267578125 L461.57000732421875,270.6199951171875 L441.9800109863281,298.0400085449219 L420.44000244140625,320.55999755859375 L402.82000732421875,334.2699890136719 L381.2699890136719,346.0199890136719 L368.5400085449219,350.9200134277344 L351.8999938964844,354.8299865722656 L324.4800109863281,356.7900085449219 L318.6000061035156,359.7300109863281 L313.70001220703125,365.6000061035156 L312.7300109863281,368.5400085449219 L313.70001220703125,388.1300048828125 L318.6000061035156,398.8999938964844 L323.5,403.7900085449219 L330.3500061035156,407.7099914550781 L343.0799865722656,410.6499938964844 L361.69000244140625,409.6700134277344 L385.19000244140625,404.7699890136719 L402.82000732421875,398.8999938964844 L432.19000244140625,385.19000244140625 L457.6499938964844,368.5400085449219 L476.260009765625,352.8699951171875 L488.010009765625,340.1400146484375 L489.9700012207031,341.1199951171875 L482.1300048828125,368.5400085449219 L472.3399963378906,392.0400085449219 L462.54998779296875,410.6499938964844 L441.010009765625,441.010009765625 L420.44000244140625,461.57000732421875 L401.8399963378906,475.2799987792969 L377.3599853515625,488.010009765625 L354.8299865722656,494.8599853515625 L343.0799865722656,495.8399963378906 L342.1000061035156,496.82000732421875 L319.5799865722656,497.79998779296875 L311.75,503.67999267578125 L307.8299865722656,513.469970703125 L308.80999755859375,524.239990234375 L311.75,532.0700073242188 L315.6600036621094,537.9500122070312 L324.4800109863281,545.780029296875 L334.2699890136719,549.7000122070312 L339.1700134277344,549.7000122070312 L340.1400146484375,550.6799926757812 L351.8999938964844,550.6799926757812 L352.8699951171875,549.7000122070312 L368.5400085449219,548.719970703125 L386.1700134277344,544.7999877929688 L403.7900085449219,538.9299926757812 L430.2300109863281,526.2000122070312 L459.6099853515625,505.6300048828125 L486.04998779296875,479.20001220703125 L487.0299987792969,480.1700134277344 L487.0299987792969,483.1099853515625 L477.239990234375,510.5299987792969 L460.5899963378906,543.8300170898438 L444.9200134277344,567.3300170898438 L422.3999938964844,591.8099975585938 L395.9599914550781,611.3900146484375 L374.4200134277344,622.1599731445312 L347.0,630.0 L318.6000061035156,631.9600219726562 L312.7300109863281,634.8900146484375 L309.7900085449219,637.8300170898438 L305.8699951171875,646.6400146484375 L305.8699951171875,654.47998046875 L307.8299865722656,661.3300170898438 L314.67999267578125,672.0999755859375 L321.5400085449219,677.97998046875 L327.4100036621094,680.9199829101562 L338.19000244140625,683.8599853515625 L351.8999938964844,683.8599853515625 L352.8699951171875,682.8800048828125 L366.5799865722656,681.9000244140625 L384.2099914550781,677.97998046875 L398.8999938964844,673.0800170898438 L431.2099914550781,657.4199829101562 L444.9200134277344,648.5999755859375 L463.5299987792969,633.9099731445312 L487.0299987792969,610.4099731445312 L488.989990234375,611.3900146484375 L488.989990234375,619.22998046875 L488.010009765625,620.2100219726562 L488.010009765625,888.52001953125 L487.0299987792969,889.5 L471.3599853515625,889.5 L470.3800048828125,888.52001953125 L461.57000732421875,888.52001953125 L427.29998779296875,882.6400146484375 L380.2900085449219,868.9299926757812 L353.8500061035156,858.1599731445312 L326.42999267578125,844.4500122070312 L286.2900085449219,818.989990234375 L264.739990234375,802.3400268554688 L247.1199951171875,786.6799926757812 L212.83999633789062,749.4600219726562 L198.16000366210938,729.8800048828125 L183.47000122070312,707.3599853515625 L160.94000244140625,664.27001953125 L145.27999877929688,622.1599731445312 L134.5,575.1599731445312 L132.5500030517578,554.5999755859375 L131.57000732421875,553.6199951171875 L131.57000732421875,543.8300170898438 L130.58999633789062,542.8499755859375 L130.58999633789062,528.1599731445312 L129.61000061035156,527.1799926757812 L130.58999633789062,478.2200012207031 L131.57000732421875,477.239990234375 L133.52999877929688,452.760009765625 L139.39999389648438,422.3999938964844 L153.11000061035156,378.3299865722656 L173.6699981689453,333.2900085449219 L197.17999267578125,295.1000061035156 L215.77999877929688,270.6199951171875 L229.49000549316406,254.9499969482422 L252.00999450683594,232.42999267578125 L267.67999267578125,218.72000122070312 L306.8500061035156,190.32000732421875 L349.94000244140625,166.82000732421875 L383.2300109863281,153.11000061035156 L426.32000732421875,140.3800048828125 L450.79998779296875,135.47999572753906 L472.3399963378906,133.52999877929688 L473.32000732421875,132.5500030517578 L518.3699951171875,130.58999633789062 L519.3400268554688,131.57000732421875 L538.9299926757812,131.57000732421875 L539.9099731445312,132.5500030517578 L557.530029296875,133.52999877929688 L604.5399780273438,142.33999633789062 L651.5399780273438,157.02999877929688 L697.5599975585938,178.57000732421875 L730.8599853515625,199.1300048828125 L768.0700073242188,228.50999450683594 L795.489990234375,255.92999267578125 L824.8699951171875,293.1400146484375 L851.2999877929688,336.2300109863281 L869.9099731445312,377.3599853515625 L881.6599731445312,413.5899963378906 L889.5,450.79998779296875 L891.4500122070312,474.29998779296875 L892.4299926757812,475.2799987792969 L892.4299926757812,487.0299987792969 L893.4099731445312,488.010009765625 L893.4099731445312,535.989990234375 L892.4299926757812,536.969970703125 L892.4299926757812,549.7000122070312 L891.4500122070312,550.6799926757812 L889.5,573.2000122070312 L879.7000122070312,618.25 L865.989990234375,657.4199829101562 L850.3300170898438,689.72998046875 L823.8900146484375,731.8400268554688 L807.239990234375,753.3800048828125 L790.5900268554688,771.989990234375 L757.2999877929688,803.3200073242188 L720.0900268554688,830.739990234375 L676.02001953125,855.219970703125 L637.8300170898438,870.8900146484375 L609.4299926757812,879.7000122070312 L594.75,882.6400146484375 L594.75,949.22998046875 L599.6400146484375,949.22998046875 L617.27001953125,944.3300170898438 L625.0999755859375,943.3499755859375 L663.2899780273438,931.5999755859375 L699.52001953125,916.9099731445312 L737.7100219726562,897.3300170898438 L775.9000244140625,872.8499755859375 L809.2000122070312,846.4099731445312 L840.530029296875,816.0499877929688 L865.010009765625,787.6500244140625 L893.4099731445312,747.510009765625 L907.1199951171875,724.0 L924.75,687.77001953125 L939.4400024414062,648.5999755859375 L951.1900024414062,603.5599975585938 L951.1900024414062,598.6599731445312 L955.0999755859375,581.0399780273438 L955.0999755859375,575.1599731445312 L956.0800170898438,574.1799926757812 L956.0800170898438,567.3300170898438 L957.0599975585938,566.3499755859375 L958.0399780273438,544.7999877929688 L959.02001953125,543.8300170898438 L959.02001953125,484.0899963378906 L958.0399780273438,483.1099853515625 L958.0399780273438,470.3800048828125 L957.0599975585938,469.3999938964844 L956.0800170898438,452.760009765625 L949.22998046875,413.5899963378906 L934.5399780273438,362.6700134277344 L919.8499755859375,326.42999267578125 L901.25,290.20001220703125 L873.8300170898438,248.10000610351562 L855.219970703125,224.58999633789062 L838.5700073242188,205.99000549316406 L809.2000122070312,177.58999633789062 L774.9199829101562,150.1699981689453 L733.7999877929688,123.7300033569336 L703.4400024414062,108.06999969482422 L665.25,92.4000015258789 L620.2100219726562,78.69000244140625 L581.0399780273438,70.8499984741211 L558.510009765625,68.9000015258789 L557.530029296875,67.91999816894531 L546.760009765625,67.91999816894531 L545.780029296875,66.94000244140625 L532.0700073242188,66.94000244140625 L531.0999755859375,65.95999908447266 Z" fill="#000000" fill-rule="evenodd" /></svg>